<?xml version="1.0" standalone="no"?><!DOCTYPE svg PUBLIC "-//W3C//DTD SVG 1.1//EN" "http://www.w3.org/Graphics/SVG/1.1/DTD/svg11.dtd"><svg t="1746374598688" class="icon" viewBox="0 0 1024 1024" version="1.1" xmlns="http://www.w3.org/2000/svg" p-id="3494" width="1200" height="1200" xmlns:xlink="http://www.w3.org/1999/xlink"><path d="M512.853333 955.733333a17.0496 17.0496 0 0 1-8.772266-2.423466l-427.52-256A17.066667 17.066667 0 0 1 68.266667 682.666667V341.333333a17.066667 17.066667 0 0 1 17.066666-17.066666c66.4576 0 121.668267-22.920533 168.840534-70.0928S324.266667 151.790933 324.266667 85.333333a17.066667 17.066667 0 0 1 17.066666-17.066666h341.333334a17.066667 17.066667 0 0 1 17.066666 17.066666c0 66.4576 22.9376 121.668267 70.0928 168.840534S872.209067 324.266667 938.666667 324.266667a17.066667 17.066667 0 0 1 17.066666 17.066666v341.333334c0 5.9904-3.140267 11.537067-8.260266 14.626133l-425.813334 256a17.186133 17.186133 0 0 1-8.8064 2.440533zM102.4 673.006933l410.436267 245.76L921.6 673.024V357.922133c-67.7376-3.822933-126.856533-30.549333-175.906133-79.616C696.6272 229.256533 669.883733 170.1376 666.077867 102.4H357.922133c-3.822933 67.7376-30.549333 126.839467-79.616 175.906133S170.1376 354.116267 102.4 357.922133v315.0848zM512 699.733333c-51.694933 0-96.529067-18.619733-133.239467-55.3472C342.596267 608.238933 324.266667 563.694933 324.266667 512c0-51.6096 18.295467-96.4096 54.391466-133.137067C415.5904 342.562133 460.3904 324.266667 512 324.266667c51.677867 0 96.221867 18.3296 132.386133 54.493866C681.1136 415.470933 699.733333 460.305067 699.733333 512c0 51.7632-18.670933 96.3584-55.4496 132.5056C608.341333 681.079467 563.746133 699.733333 512 699.733333z m0-341.333333c-42.9568 0-78.677333 14.592-109.2096 44.5952C372.992 433.322667 358.4 469.0432 358.4 512c0 42.922667 14.557867 78.318933 44.4928 108.253867C433.408 650.769067 469.0944 665.6 512 665.6c42.8544 0 78.2336-14.7968 108.151467-45.243733C650.8032 590.2336 665.6 554.871467 665.6 512c0-42.9056-14.830933-78.592-45.346133-109.1072C590.301867 372.957867 554.9056 358.4 512 358.4zM938.666667 972.8a33.9968 33.9968 0 0 1-24.132267-10.001067l-85.333333-85.333333a34.133333 34.133333 0 1 1 48.264533-48.264533l85.333333 85.333333A34.133333 34.133333 0 0 1 938.666667 972.8zM85.333333 972.8a34.133333 34.133333 0 0 1-24.132266-58.2656l85.333333-85.333333a34.133333 34.133333 0 1 1 48.264533 48.264533l-85.333333 85.333333A33.962667 33.962667 0 0 1 85.333333 972.8z m768-768a34.133333 34.133333 0 0 1-24.132266-58.2656l85.333333-85.333333a34.133333 34.133333 0 1 1 48.264533 48.264533l-85.333333 85.333333A33.9968 33.9968 0 0 1 853.333333 204.8z m-682.666666 0a33.962667 33.962667 0 0 1-24.132267-10.001067l-85.333333-85.333333a34.133333 34.133333 0 1 1 48.264533-48.264533l85.333333 85.333333A34.133333 34.133333 0 0 1 170.666667 204.8z" p-id="3495"></path></svg>