<?xml version="1.0" standalone="no"?><!DOCTYPE svg PUBLIC "-//W3C//DTD SVG 1.1//EN" "http://www.w3.org/Graphics/SVG/1.1/DTD/svg11.dtd"><svg t="1746282243391" class="icon" viewBox="0 0 2964 1024" version="1.1" xmlns="http://www.w3.org/2000/svg" p-id="6870" width="3473.4375" height="1200" xmlns:xlink="http://www.w3.org/1999/xlink"><path d="M2078.477474 363.250526h-121.721263a17.515789 17.515789 0 0 0-16.922948 14.282106l-49.125052 313.397894a9.970526 9.970526 0 0 0 9.808842 11.506527h62.248421a11.317895 11.317895 0 0 0 11.452631-9.862737l14.201263-88.926316a16.653474 16.653474 0 0 1 16.922948-14.282105h38.211368c80.249263 0 126.113684-38.938947 138.105263-116.33179 5.470316-33.468632 0-60.362105-15.279158-79.036631-16.384-20.291368-46.942316-30.72-87.902315-30.72z m14.201263 114.176c-6.548211 43.924211-39.855158 43.924211-72.057263 43.924211h-18.566737l13.096421-81.785263a10.024421 10.024421 0 0 1 9.835789-8.784842h8.192c21.827368 0 42.576842 0 53.490527 12.611368 6.548211 7.68 8.192 18.674526 6.009263 34.034526z" fill="#009CDE" p-id="6871"></path><path d="M1212.173474 363.250526h-121.748211a17.515789 17.515789 0 0 0-16.922947 14.282106l-49.125053 313.397894a9.970526 9.970526 0 0 0 9.83579 11.506527h57.856a17.515789 17.515789 0 0 0 16.922947-14.282106l13.096421-84.506947a16.653474 16.653474 0 0 1 16.922947-14.282105h38.211369c80.249263 0 126.113684-38.938947 138.105263-116.33179 5.470316-33.468632 0-60.362105-15.279158-79.036631-16.384-20.291368-46.942316-30.72-87.875368-30.72z m14.174315 114.176c-6.548211 43.924211-39.855158 43.924211-72.057263 43.924211h-18.539789l13.096421-81.785263a10.024421 10.024421 0 0 1 9.808842-8.784842h8.192c21.827368 0 42.576842 0 53.490526 12.611368 6.575158 7.68 8.192 18.674526 6.009263 34.034526z m348.833685-1.643789h-58.421895a10.024421 10.024421 0 0 0-9.808842 8.784842l-2.748632 16.437895-3.799579-6.009263c-12.557474-18.108632-40.421053-24.710737-68.796631-24.710737-64.404211 0-118.999579 48.855579-129.913263 117.463579-5.470316 34.007579 2.155789 66.937263 21.827368 90.00421 18.027789 20.857263 43.115789 29.642105 73.162105 29.642105 51.846737 0 80.222316-33.495579 80.222316-33.495579l-2.694737 16.464843a9.970526 9.970526 0 0 0 9.808842 11.533473h52.412632a17.515789 17.515789 0 0 0 16.922947-14.282105l31.636211-200.299789a9.916632 9.916632 0 0 0-9.808842-11.533474z m-80.788211 114.149052c-5.470316 33.468632-32.202105 55.969684-65.509052 55.969685-16.922947 0-30.585263-5.470316-39.316211-15.898948-8.730947-10.428632-11.991579-24.710737-9.269895-41.175579 5.443368-32.929684 32.202105-56.508632 64.943158-56.508631 16.384 0 30.046316 5.470316 38.777263 15.898947 9.269895 10.994526 13.096421 25.249684 10.374737 41.714526z" fill="#003087" p-id="6872"></path><path d="M2441.512421 475.782737h-58.421895a10.024421 10.024421 0 0 0-9.835789 8.784842l-2.694737 16.437895-3.853474-6.009263c-12.557474-18.108632-40.394105-24.710737-68.769684-24.710737-64.404211 0-118.999579 48.855579-129.913263 117.463579-5.470316 34.007579 2.155789 66.937263 21.827368 90.00421 18.000842 20.857263 43.115789 29.642105 73.135158 29.642105 51.873684 0 80.249263-33.495579 80.249263-33.495579l-2.721684 16.464843a9.970526 9.970526 0 0 0 9.83579 11.533473h52.385684a17.515789 17.515789 0 0 0 16.922947-14.282105l31.663158-200.299789a9.916632 9.916632 0 0 0-9.808842-11.533474z m-80.815158 114.149052c-5.443368 33.468632-32.202105 55.969684-65.482105 55.969685-16.922947 0-30.585263-5.470316-39.316211-15.898948-8.730947-10.428632-12.018526-24.710737-9.269894-41.175579 5.443368-32.929684 32.202105-56.508632 64.943158-56.508631 16.384 0 30.019368 5.470316 38.777263 15.898947 9.269895 10.994526 13.096421 25.249684 10.347789 41.714526z" fill="#009CDE" p-id="6873"></path><path d="M1885.237895 475.782737h-58.394948a17.138526 17.138526 0 0 0-14.201263 7.68l-80.78821 119.646316-34.384842-114.714948a17.057684 17.057684 0 0 0-16.384-12.072421h-57.317053a10.482526 10.482526 0 0 0-9.83579 13.743158l64.404211 189.871158-60.577684 85.611789c-4.904421 6.602105 0 15.925895 8.192 15.925895h58.394947a16.303158 16.303158 0 0 0 13.662316-7.141052l194.317474-282.085053c6.009263-7.141053 1.104842-16.464842-7.087158-16.464842z" fill="#003087" p-id="6874"></path><path d="M2510.282105 371.496421L2460.618105 690.391579a9.970526 9.970526 0 0 0 9.808842 11.533474h50.229895a17.515789 17.515789 0 0 0 16.922947-14.282106l49.125053-313.370947a9.970526 9.970526 0 0 0-9.835789-11.533474H2520.656842c-5.470316 0.538947-9.835789 3.853474-10.374737 8.784842zM786.917053 379.176421c6.548211-41.714526 0-70.251789-22.366316-96.040421C739.435789 254.598737 694.622316 242.526316 637.332211 242.526316h-166.534737a24.037053 24.037053 0 0 0-23.444211 20.318316l-69.874526 442.341052c-1.643789 8.784842 5.443368 16.464842 14.174316 16.464842h102.642526l-7.087158 45.002106c-1.104842 7.68 4.904421 14.282105 12.530526 14.282105h86.797474a21.153684 21.153684 0 0 0 20.749474-17.569684l1.077894-4.392421 16.384-104.286316 1.104843-5.470316a20.641684 20.641684 0 0 1 20.749473-17.569684h13.096421c84.075789 0 149.557895-34.034526 168.690527-133.389474 8.165053-41.687579 3.799579-76.261053-17.488842-100.405895a91.082105 91.082105 0 0 0-24.010106-18.674526" fill="#009CDE" p-id="6875"></path><path d="M786.917053 379.176421c6.548211-41.714526 0-70.251789-22.366316-96.040421C739.435789 254.598737 694.622316 242.526316 637.332211 242.526316h-166.534737a24.037053 24.037053 0 0 0-23.444211 20.318316l-69.874526 442.341052c-1.643789 8.784842 5.443368 16.464842 14.174316 16.464842h102.642526l25.653895-164.648421-0.538948 4.931369a23.632842 23.632842 0 0 1 23.444211-20.291369h49.152c96.067368 0 171.385263-38.965895 193.239579-152.576l1.616842-9.889684" fill="#012169" p-id="6876"></path><path d="M548.378947 379.742316a21.746526 21.746526 0 0 1 11.452632-15.925895 25.6 25.6 0 0 1 8.730947-2.182737h131.018106c15.279158 0 30.019368 1.077895 43.115789 3.287579 3.826526 0.538947 7.653053 1.077895 10.913684 2.182737 3.826526 0.538947 7.114105 1.643789 10.374737 2.748632l4.904421 1.643789c6.575158 2.209684 12.557474 4.931368 18.02779 7.68 6.548211-41.714526 0-70.251789-22.366316-96.040421C739.435789 254.598737 694.622316 242.526316 637.332211 242.526316h-166.534737a24.037053 24.037053 0 0 0-23.444211 20.318316l-69.874526 442.341052c-1.643789 8.784842 5.443368 16.464842 14.174316 16.464842h102.642526l25.653895-164.648421 28.375579-177.259789z" fill="#003087" p-id="6877"></path></svg>